name analog
datacolumns 19
datarows 46
range 0.747 0.7695
endheader
time	ground_force_vx	ground_force_vy	ground_force_vz	ground_force_px	ground_force_py	ground_force_pz	l_ground_force_vx	l_ground_force_vy	l_ground_force_vz	l_ground_force_px	l_ground_force_py	l_ground_force_pz	ground_torque_x	ground_torque_y	ground_torque_z	l_ground_torque_x	l_ground_torque_y	l_ground_torque_z
0.747	-0.0	-0.0	-0.0	-0.0	-0.0	-0.0	-4.737405776977539	7.463804721832275	-736.3292846679688	-0.0	-0.0	-0.0	-0.0	-0.0	-0.0	209965.71875	-64174.66015625	-3299.947509765625
0.7475	-0.0	-0.0	-0.0	-0.0	-0.0	-0.0	-4.302035808563232	7.922542095184326	-733.985107421875	-0.0	-0.0	-0.0	-0.0	-0.0	-0.0	209761.203125	-64471.49609375	-3145.435546875
0.748	-0.0	-0.0	-0.0	-0.0	-0.0	-0.0	-3.5659337043762207	8.611065864562988	-733.5675048828125	-0.0	-0.0	-0.0	-0.0	-0.0	-0.0	209603.78125	-64494.95703125	-2848.0966796875
0.7485	-0.0	-0.0	-0.0	-0.0	-0.0	-0.0	-2.980637550354004	9.220829010009766	-731.0531616210938	-0.0	-0.0	-0.0	-0.0	-0.0	-0.0	209086.375	-64439.8203125	-2619.10498046875
0.749	-0.0	-0.0	-0.0	-0.0	-0.0	-0.0	-2.4839019775390625	10.19229221343994	-730.215576171875	-0.0	-0.0	-0.0	-0.0	-0.0	-0.0	208570.03125	-64674.30859375	-2342.63671875
0.7495	-0.0	-0.0	-0.0	-0.0	-0.0	-0.0	-1.144486904144287	10.324922561645508	-727.841796875	-0.0	-0.0	-0.0	-0.0	-0.0	-0.0	208006.4375	-64699.75390625	-1953.091064453125
0.75	-0.0	-0.0	-0.0	-0.0	-0.0	-0.0	-1.0464802980422974	9.866220474243164	-728.25927734375	-0.0	-0.0	-0.0	-0.0	-0.0	-0.0	207721.921875	-64920.76953125	-1784.1160888671875
0.7505000000000001	-0.0	-0.0	-0.0	-0.0	-0.0	-0.0	-0.895636260509491	9.265286445617676	-725.6802978515625	-0.0	-0.0	-0.0	-0.0	-0.0	-0.0	207297.625	-64709.7109375	-1754.5474853515625
0.751	-0.0	-0.0	-0.0	-0.0	-0.0	-0.0	-0.7279955148696899	8.134003639221191	-724.8055419921875	-0.0	-0.0	-0.0	-0.0	-0.0	-0.0	207095.484375	-64555.6796875	-1792.88916015625
0.7515000000000001	-0.0	-0.0	-0.0	-0.0	-0.0	-0.0	-1.0645294189453125	6.897388458251953	-726.0244750976562	-0.0	-0.0	-0.0	-0.0	-0.0	-0.0	207078.796875	-64643.171875	-1689.85546875
0.752	-0.0	-0.0	-0.0	-0.0	-0.0	-0.0	-0.9758186340332032	5.52118444442749	-727.3151245117188	-0.0	-0.0	-0.0	-0.0	-0.0	-0.0	207465.890625	-64627.11328125	-1485.96728515625
0.7525000000000001	-0.0	-0.0	-0.0	-0.0	-0.0	-0.0	-0.9839569330215454	4.750733852386475	-732.0972900390625	-0.0	-0.0	-0.0	-0.0	-0.0	-0.0	208410.046875	-65049.63671875	-1435.0693359375
0.753	-0.0	-0.0	-0.0	-0.0	-0.0	-0.0	-0.2661323547363281	3.7015202045440674	-736.5724487304688	-0.0	-0.0	-0.0	-0.0	-0.0	-0.0	209961.5625	-65259.00390625	-1345.8079833984375
0.7535000000000001	-0.0	-0.0	-0.0	-0.0	-0.0	-0.0	0.6827538013458252	2.984001636505127	-743.48095703125	-0.0	-0.0	-0.0	-0.0	-0.0	-0.0	211532.59375	-65513.20703125	-1073.0216064453125
0.754	-0.0	-0.0	-0.0	-0.0	-0.0	-0.0	1.4463355541229248	2.718914747238159	-749.8407592773438	-0.0	-0.0	-0.0	-0.0	-0.0	-0.0	213253.953125	-65924.4296875	-885.58642578125
0.7545000000000001	-0.0	-0.0	-0.0	-0.0	-0.0	-0.0	2.80402946472168	2.269484758377075	-754.7595825195312	-0.0	-0.0	-0.0	-0.0	-0.0	-0.0	214912.5	-66700.53125	-576.5205688476562
0.755	-0.0	-0.0	-0.0	-0.0	-0.0	-0.0	4.373863697052002	1.8816717863082888	-761.9385986328125	-0.0	-0.0	-0.0	-0.0	-0.0	-0.0	216227.78125	-67031.6484375	-204.0596466064453
0.7555000000000001	-0.0	-0.0	-0.0	-0.0	-0.0	-0.0	5.943622589111328	1.2634572982788086	-765.7960205078125	-0.0	-0.0	-0.0	-0.0	-0.0	-0.0	217519.015625	-67636.9296875	274.03009033203125
0.756	-0.0	-0.0	-0.0	-0.0	-0.0	-0.0	7.9642815589904785	0.2649650573730469	-769.9085083007812	-0.0	-0.0	-0.0	-0.0	-0.0	-0.0	218409.6875	-68083.21875	729.2085571289062
0.7565000000000001	-0.0	-0.0	-0.0	-0.0	-0.0	-0.0	8.400386810302734	-0.7606104612350464	-771.8961181640625	-0.0	-0.0	-0.0	-0.0	-0.0	-0.0	219274.796875	-68296.1015625	1019.2394409179688
0.757	-0.0	-0.0	-0.0	-0.0	-0.0	-0.0	9.19874668121338	-1.888965487480164	-774.5535278320312	-0.0	-0.0	-0.0	-0.0	-0.0	-0.0	220061.21875	-68663.1484375	1366.326904296875
0.7575000000000001	-0.0	-0.0	-0.0	-0.0	-0.0	-0.0	9.696674346923828	-3.1254208087921143	-776.378173828125	-0.0	-0.0	-0.0	-0.0	-0.0	-0.0	220430.0625	-68880.9375	1628.5294189453125
0.758	-0.0	-0.0	-0.0	-0.0	-0.0	-0.0	10.351924896240234	-3.927211284637451	-778.0445556640625	-0.0	-0.0	-0.0	-0.0	-0.0	-0.0	220948.125	-69211.140625	1975.6400146484373
0.7585000000000001	-0.0	-0.0	-0.0	-0.0	-0.0	-0.0	11.675939559936523	-3.84528374671936	-776.9696655273438	-0.0	-0.0	-0.0	-0.0	-0.0	-0.0	220891.8125	-69353.015625	2366.81640625
0.759	-0.0	-0.0	-0.0	-0.0	-0.0	-0.0	12.692447662353516	-4.416084289550781	-778.3932495117188	-0.0	-0.0	-0.0	-0.0	-0.0	-0.0	220741.5625	-69466.46875	2773.488037109375
0.7595000000000001	-0.0	-0.0	-0.0	-0.0	-0.0	-0.0	13.702753067016602	-4.748815536499023	-777.1302490234375	-0.0	-0.0	-0.0	-0.0	-0.0	-0.0	220520.359375	-69665.984375	3314.86572265625
0.76	-0.0	-0.0	-0.0	-0.0	-0.0	-0.0	14.589106559753418	-4.86424446105957	-776.4054565429688	-0.0	-0.0	-0.0	-0.0	-0.0	-0.0	220084.46875	-69671.015625	3491.187744140625
0.7605000000000001	-0.0	-0.0	-0.0	-0.0	-0.0	-0.0	15.019526481628418	-5.278486728668213	-773.4786987304688	-0.0	-0.0	-0.0	-0.0	-0.0	-0.0	219419.9375	-69648.0078125	3728.682861328125
0.761	-0.0	-0.0	-0.0	-0.0	-0.0	-0.0	15.251869201660156	-5.625266551971436	-770.7936401367188	-0.0	-0.0	-0.0	-0.0	-0.0	-0.0	218619.890625	-69581.9296875	3956.87109375
0.7615000000000001	-0.0	-0.0	-0.0	-0.0	-0.0	-0.0	15.025875091552734	-6.012120246887207	-767.4693603515625	-0.0	-0.0	-0.0	-0.0	-0.0	-0.0	217805.953125	-69228.2265625	3915.623779296875
0.762	-0.0	-0.0	-0.0	-0.0	-0.0	-0.0	14.481186866760254	-6.882937431335449	-765.5811767578125	-0.0	-0.0	-0.0	-0.0	-0.0	-0.0	217101.578125	-69026.1171875	3983.5322265625
0.7625000000000001	-0.0	-0.0	-0.0	-0.0	-0.0	-0.0	13.306617736816406	-8.335713386535645	-765.12353515625	-0.0	-0.0	-0.0	-0.0	-0.0	-0.0	216353.046875	-68170.4921875	3852.4287109375
0.763	-0.0	-0.0	-0.0	-0.0	-0.0	-0.0	11.06126594543457	-9.578081130981444	-764.5570068359375	-0.0	-0.0	-0.0	-0.0	-0.0	-0.0	216305.390625	-67971.8203125	3385.1396484375
0.7635000000000001	-0.0	-0.0	-0.0	-0.0	-0.0	-0.0	9.076119422912598	-10.808570861816406	-764.4246826171875	-0.0	-0.0	-0.0	-0.0	-0.0	-0.0	216229.5625	-67401.6953125	2936.53515625
0.764	-0.0	-0.0	-0.0	-0.0	-0.0	-0.0	7.251163482666016	-10.985166549682615	-765.8211059570312	-0.0	-0.0	-0.0	-0.0	-0.0	-0.0	216615.78125	-67073.15625	2560.78515625
0.7645000000000001	-0.0	-0.0	-0.0	-0.0	-0.0	-0.0	5.549762725830078	-10.753329277038574	-767.7200317382812	-0.0	-0.0	-0.0	-0.0	-0.0	-0.0	217293.40625	-66839.6875	2096.2109375
0.765	-0.0	-0.0	-0.0	-0.0	-0.0	-0.0	3.847837448120117	-10.383299827575684	-770.9267578125	-0.0	-0.0	-0.0	-0.0	-0.0	-0.0	218186.828125	-66929.390625	1650.1590576171875
0.7655000000000001	-0.0	-0.0	-0.0	-0.0	-0.0	-0.0	1.7910163402557373	-9.704487800598145	-774.3306274414062	-0.0	-0.0	-0.0	-0.0	-0.0	-0.0	219566.875	-66696.90625	1114.934326171875
0.766	-0.0	-0.0	-0.0	-0.0	-0.0	-0.0	0.1389175653457641	-8.705512046813965	-779.525146484375	-0.0	-0.0	-0.0	-0.0	-0.0	-0.0	220596.109375	-66630.6953125	518.9649658203125
0.7665000000000001	-0.0	-0.0	-0.0	-0.0	-0.0	-0.0	-1.1584880352020264	-6.608452320098877	-782.469482421875	-0.0	-0.0	-0.0	-0.0	-0.0	-0.0	222083.265625	-66548.9296875	192.33311462402344
0.767	-0.0	-0.0	-0.0	-0.0	-0.0	-0.0	-3.092524290084839	-5.210979461669922	-789.1233520507812	-0.0	-0.0	-0.0	-0.0	-0.0	-0.0	223372.46875	-66697.5	-251.8747711181641
0.7675000000000001	-0.0	-0.0	-0.0	-0.0	-0.0	-0.0	-3.991985321044922	-3.467278957366944	-793.2223510742188	-0.0	-0.0	-0.0	-0.0	-0.0	-0.0	224957.640625	-66767.71875	-617.3397827148438
0.768	-0.0	-0.0	-0.0	-0.0	-0.0	-0.0	-4.907016754150391	-1.380427360534668	-796.544189453125	-0.0	-0.0	-0.0	-0.0	-0.0	-0.0	226425.171875	-66869.0390625	-1103.0618896484375
0.7685	-0.0	-0.0	-0.0	-0.0	-0.0	-0.0	-6.097950458526611	1.2231838703155518	-799.5380249023438	-0.0	-0.0	-0.0	-0.0	-0.0	-0.0	227881.25	-67151.6875	-1509.169921875
0.769	-0.0	-0.0	-0.0	-0.0	-0.0	-0.0	-6.531864643096924	3.983924388885498	-803.0487060546875	-0.0	-0.0	-0.0	-0.0	-0.0	-0.0	228554.84375	-67480.828125	-1833.44482421875
0.7695	-0.0	-0.0	-0.0	-0.0	-0.0	-0.0	-6.536571979522705	6.791316032409668	-804.9230346679688	-0.0	-0.0	-0.0	-0.0	-0.0	-0.0	229655.140625	-67401.046875	-2084.053955078125
